<?xml version="1.0" encoding="UTF-8" standalone="no"?>
<svg
   xmlns:dc="http://purl.org/dc/elements/1.1/"
   xmlns:cc="http://creativecommons.org/ns#"
   xmlns:rdf="http://www.w3.org/1999/02/22-rdf-syntax-ns#"
   xmlns:svg="http://www.w3.org/2000/svg"
   xmlns="http://www.w3.org/2000/svg"
   width="89.149139mm"
   height="85.900795mm"
   viewBox="0 0 89.149139 85.900795"
   version="1.1"
   id="svg949">
  <defs
     id="defs943">
    <filter
       style="color-interpolation-filters:sRGB"
       id="filter1889"
       x="-0.0057402896"
       width="1.0114806"
       y="-0.0059599462"
       height="1.0119199">
      <feGaussianBlur
         stdDeviation="0.21080563"
         id="feGaussianBlur1891" />
    </filter>
  </defs>
  <metadata
     id="metadata946">
    <rdf:RDF>
      <cc:Work
         rdf:about="">
        <dc:format>image/svg+xml</dc:format>
        <dc:type
           rdf:resource="http://purl.org/dc/dcmitype/StillImage" />
        <dc:title></dc:title>
      </cc:Work>
    </rdf:RDF>
  </metadata>
  <g
     id="layer1"
     transform="translate(-58.31313,-75.275229)">
    <g
       id="g1683"
       transform="translate(-8.6937061,-19.387083)"
       style="opacity:0.505;filter:url(#filter1889)">
      <g
         id="g1585"
         transform="matrix(0.71008974,0.20790079,0.20790079,-0.71008974,6.5942922,208.08113)"
         style="stroke:#6081b7;stroke-width:5;stroke-miterlimit:4;stroke-dasharray:none;stroke-opacity:1">
        <path
           id="path1577"
           style="color:#000000;font-style:normal;font-variant:normal;font-weight:normal;font-stretch:normal;font-size:medium;line-height:normal;font-family:sans-serif;font-variant-ligatures:normal;font-variant-position:normal;font-variant-caps:normal;font-variant-numeric:normal;font-variant-alternates:normal;font-variant-east-asian:normal;font-feature-settings:normal;font-variation-settings:normal;text-indent:0;text-align:start;text-decoration:none;text-decoration-line:none;text-decoration-style:solid;text-decoration-color:#000000;letter-spacing:normal;word-spacing:normal;text-transform:none;writing-mode:lr-tb;direction:ltr;text-orientation:mixed;dominant-baseline:auto;baseline-shift:baseline;text-anchor:start;white-space:normal;shape-padding:0;shape-margin:0;inline-size:0;clip-rule:nonzero;display:inline;overflow:visible;visibility:visible;opacity:1;isolation:auto;mix-blend-mode:normal;color-interpolation:sRGB;color-interpolation-filters:linearRGB;solid-color:#000000;solid-opacity:1;vector-effect:none;fill:#3a3a3a;fill-opacity:1;fill-rule:nonzero;stroke:#6081b7;stroke-width:18.8976;stroke-linecap:round;stroke-linejoin:round;stroke-miterlimit:4;stroke-dasharray:none;stroke-dashoffset:4.45077;stroke-opacity:1;paint-order:fill markers stroke;color-rendering:auto;image-rendering:auto;shape-rendering:auto;text-rendering:auto;enable-background:accumulate;stop-color:#000000;stop-opacity:1"
           d="m 212.95898,410.05273 -1.30468,1.30665 199.96093,199.77734 c 8.77433,8.76608 22.93896,8.75809 31.70508,-0.0156 l 189.01953,-189.19921 -1.30859,-1.30665 -189.01758,189.19922 c -8.06532,8.07285 -21.01889,8.08152 -29.09179,0.0156 z"
           transform="scale(0.26458333)" />
        <path
           id="path1579"
           style="color:#000000;font-style:normal;font-variant:normal;font-weight:normal;font-stretch:normal;font-size:medium;line-height:normal;font-family:sans-serif;font-variant-ligatures:normal;font-variant-position:normal;font-variant-caps:normal;font-variant-numeric:normal;font-variant-alternates:normal;font-variant-east-asian:normal;font-feature-settings:normal;font-variation-settings:normal;text-indent:0;text-align:start;text-decoration:none;text-decoration-line:none;text-decoration-style:solid;text-decoration-color:#000000;letter-spacing:normal;word-spacing:normal;text-transform:none;writing-mode:lr-tb;direction:ltr;text-orientation:mixed;dominant-baseline:auto;baseline-shift:baseline;text-anchor:start;white-space:normal;shape-padding:0;shape-margin:0;inline-size:0;clip-rule:nonzero;display:inline;overflow:visible;visibility:visible;opacity:1;isolation:auto;mix-blend-mode:normal;color-interpolation:sRGB;color-interpolation-filters:linearRGB;solid-color:#000000;solid-opacity:1;vector-effect:none;fill:#3a3a3a;fill-opacity:1;fill-rule:nonzero;stroke:#6081b7;stroke-width:18.8976;stroke-linecap:round;stroke-linejoin:round;stroke-miterlimit:4;stroke-dasharray:none;stroke-dashoffset:4.45077;stroke-opacity:1;paint-order:fill markers stroke;color-rendering:auto;image-rendering:auto;shape-rendering:auto;text-rendering:auto;enable-background:accumulate;stop-color:#000000;stop-opacity:1"
           d="m 244.57227,375.63672 -1.30469,1.30664 168.34765,168.19336 c 8.77433,8.76608 22.93896,8.75809 31.70508,-0.0156 l 156.01953,-156.16797 -1.30859,-1.30664 -156.01758,156.16797 c -8.06532,8.07285 -21.01889,8.08152 -29.09179,0.0156 z"
           transform="scale(0.26458333)" />
        <path
           id="path1581"
           style="color:#000000;font-style:normal;font-variant:normal;font-weight:normal;font-stretch:normal;font-size:medium;line-height:normal;font-family:sans-serif;font-variant-ligatures:normal;font-variant-position:normal;font-variant-caps:normal;font-variant-numeric:normal;font-variant-alternates:normal;font-variant-east-asian:normal;font-feature-settings:normal;font-variation-settings:normal;text-indent:0;text-align:start;text-decoration:none;text-decoration-line:none;text-decoration-style:solid;text-decoration-color:#000000;letter-spacing:normal;word-spacing:normal;text-transform:none;writing-mode:lr-tb;direction:ltr;text-orientation:mixed;dominant-baseline:auto;baseline-shift:baseline;text-anchor:start;white-space:normal;shape-padding:0;shape-margin:0;inline-size:0;clip-rule:nonzero;display:inline;overflow:visible;visibility:visible;opacity:1;isolation:auto;mix-blend-mode:normal;color-interpolation:sRGB;color-interpolation-filters:linearRGB;solid-color:#000000;solid-opacity:1;vector-effect:none;fill:#3a3a3a;fill-opacity:1;fill-rule:nonzero;stroke:#6081b7;stroke-width:18.8976;stroke-linecap:round;stroke-linejoin:round;stroke-miterlimit:4;stroke-dasharray:none;stroke-dashoffset:4.45077;stroke-opacity:1;paint-order:fill markers stroke;color-rendering:auto;image-rendering:auto;shape-rendering:auto;text-rendering:auto;enable-background:accumulate;stop-color:#000000;stop-opacity:1"
           d="m 281.57227,338.60156 -1.30469,1.30664 131.34765,131.22852 c 8.77433,8.76608 22.93896,8.75809 31.70508,-0.0156 L 562.33984,351.98828 561.0332,350.68164 442.01367,469.81445 c -8.06532,8.07285 -21.01889,8.08152 -29.09179,0.0156 z"
           transform="scale(0.26458333)" />
        <path
           id="path1583"
           style="color:#000000;font-style:normal;font-variant:normal;font-weight:normal;font-stretch:normal;font-size:medium;line-height:normal;font-family:sans-serif;font-variant-ligatures:normal;font-variant-position:normal;font-variant-caps:normal;font-variant-numeric:normal;font-variant-alternates:normal;font-variant-east-asian:normal;font-feature-settings:normal;font-variation-settings:normal;text-indent:0;text-align:start;text-decoration:none;text-decoration-line:none;text-decoration-style:solid;text-decoration-color:#000000;letter-spacing:normal;word-spacing:normal;text-transform:none;writing-mode:lr-tb;direction:ltr;text-orientation:mixed;dominant-baseline:auto;baseline-shift:baseline;text-anchor:start;white-space:normal;shape-padding:0;shape-margin:0;inline-size:0;clip-rule:nonzero;display:inline;overflow:visible;visibility:visible;opacity:1;isolation:auto;mix-blend-mode:normal;color-interpolation:sRGB;color-interpolation-filters:linearRGB;solid-color:#000000;solid-opacity:1;vector-effect:none;fill:#3a3a3a;fill-opacity:1;fill-rule:nonzero;stroke:#6081b7;stroke-width:18.8976;stroke-linecap:round;stroke-linejoin:round;stroke-miterlimit:4;stroke-dasharray:none;stroke-dashoffset:4.45077;stroke-opacity:1;paint-order:fill markers stroke;color-rendering:auto;image-rendering:auto;shape-rendering:auto;text-rendering:auto;enable-background:accumulate;stop-color:#000000;stop-opacity:1"
           d="m 315.57227,304.57031 -1.30665,1.30664 97.34961,97.25977 c 8.77433,8.76608 22.93896,8.75809 31.70508,-0.0156 l 85.01953,-85.10156 -1.30664,-1.30469 -85.01953,85.09961 c -8.06532,8.07285 -21.01889,8.07956 -29.09179,0.0137 z"
           transform="scale(0.26458333)" />
      </g>
      <g
         id="g1575"
         transform="matrix(0.62580137,0.18322276,-0.18322276,0.62580137,68.689997,30.10825)"
         style="fill:#6dcbc7;fill-opacity:1;stroke:#14caff;stroke-width:5;stroke-miterlimit:4;stroke-dasharray:none;stroke-opacity:1">
        <path
           id="path1525"
           style="color:#000000;font-style:normal;font-variant:normal;font-weight:normal;font-stretch:normal;font-size:medium;line-height:normal;font-family:sans-serif;font-variant-ligatures:normal;font-variant-position:normal;font-variant-caps:normal;font-variant-numeric:normal;font-variant-alternates:normal;font-variant-east-asian:normal;font-feature-settings:normal;font-variation-settings:normal;text-indent:0;text-align:start;text-decoration:none;text-decoration-line:none;text-decoration-style:solid;text-decoration-color:#000000;letter-spacing:normal;word-spacing:normal;text-transform:none;writing-mode:lr-tb;direction:ltr;text-orientation:mixed;dominant-baseline:auto;baseline-shift:baseline;text-anchor:start;white-space:normal;shape-padding:0;shape-margin:0;inline-size:0;clip-rule:nonzero;display:inline;overflow:visible;visibility:visible;opacity:1;isolation:auto;mix-blend-mode:normal;color-interpolation:sRGB;color-interpolation-filters:linearRGB;solid-color:#000000;solid-opacity:1;vector-effect:none;fill:#6dcbc7;fill-opacity:1;fill-rule:nonzero;stroke:#14caff;stroke-width:18.8976;stroke-linecap:round;stroke-linejoin:round;stroke-miterlimit:4;stroke-dasharray:none;stroke-dashoffset:4.45077;stroke-opacity:1;paint-order:fill markers stroke;color-rendering:auto;image-rendering:auto;shape-rendering:auto;text-rendering:auto;enable-background:accumulate;stop-color:#000000;stop-opacity:1"
           d="m 212.95898,410.05273 -1.30468,1.30665 199.96093,199.77734 c 8.77433,8.76608 22.93896,8.75809 31.70508,-0.0156 l 189.01953,-189.19921 -1.30859,-1.30665 -189.01758,189.19922 c -8.06532,8.07285 -21.01889,8.08152 -29.09179,0.0156 z"
           transform="scale(0.26458333)" />
        <path
           id="path1531"
           style="color:#000000;font-style:normal;font-variant:normal;font-weight:normal;font-stretch:normal;font-size:medium;line-height:normal;font-family:sans-serif;font-variant-ligatures:normal;font-variant-position:normal;font-variant-caps:normal;font-variant-numeric:normal;font-variant-alternates:normal;font-variant-east-asian:normal;font-feature-settings:normal;font-variation-settings:normal;text-indent:0;text-align:start;text-decoration:none;text-decoration-line:none;text-decoration-style:solid;text-decoration-color:#000000;letter-spacing:normal;word-spacing:normal;text-transform:none;writing-mode:lr-tb;direction:ltr;text-orientation:mixed;dominant-baseline:auto;baseline-shift:baseline;text-anchor:start;white-space:normal;shape-padding:0;shape-margin:0;inline-size:0;clip-rule:nonzero;display:inline;overflow:visible;visibility:visible;opacity:1;isolation:auto;mix-blend-mode:normal;color-interpolation:sRGB;color-interpolation-filters:linearRGB;solid-color:#000000;solid-opacity:1;vector-effect:none;fill:#6dcbc7;fill-opacity:1;fill-rule:nonzero;stroke:#14caff;stroke-width:18.8976;stroke-linecap:round;stroke-linejoin:round;stroke-miterlimit:4;stroke-dasharray:none;stroke-dashoffset:4.45077;stroke-opacity:1;paint-order:fill markers stroke;color-rendering:auto;image-rendering:auto;shape-rendering:auto;text-rendering:auto;enable-background:accumulate;stop-color:#000000;stop-opacity:1"
           d="m 244.57227,375.63672 -1.30469,1.30664 168.34765,168.19336 c 8.77433,8.76608 22.93896,8.75809 31.70508,-0.0156 l 156.01953,-156.16797 -1.30859,-1.30664 -156.01758,156.16797 c -8.06532,8.07285 -21.01889,8.08152 -29.09179,0.0156 z"
           transform="scale(0.26458333)" />
        <path
           id="path1533"
           style="color:#000000;font-style:normal;font-variant:normal;font-weight:normal;font-stretch:normal;font-size:medium;line-height:normal;font-family:sans-serif;font-variant-ligatures:normal;font-variant-position:normal;font-variant-caps:normal;font-variant-numeric:normal;font-variant-alternates:normal;font-variant-east-asian:normal;font-feature-settings:normal;font-variation-settings:normal;text-indent:0;text-align:start;text-decoration:none;text-decoration-line:none;text-decoration-style:solid;text-decoration-color:#000000;letter-spacing:normal;word-spacing:normal;text-transform:none;writing-mode:lr-tb;direction:ltr;text-orientation:mixed;dominant-baseline:auto;baseline-shift:baseline;text-anchor:start;white-space:normal;shape-padding:0;shape-margin:0;inline-size:0;clip-rule:nonzero;display:inline;overflow:visible;visibility:visible;opacity:1;isolation:auto;mix-blend-mode:normal;color-interpolation:sRGB;color-interpolation-filters:linearRGB;solid-color:#000000;solid-opacity:1;vector-effect:none;fill:#6dcbc7;fill-opacity:1;fill-rule:nonzero;stroke:#14caff;stroke-width:18.8976;stroke-linecap:round;stroke-linejoin:round;stroke-miterlimit:4;stroke-dasharray:none;stroke-dashoffset:4.45077;stroke-opacity:1;paint-order:fill markers stroke;color-rendering:auto;image-rendering:auto;shape-rendering:auto;text-rendering:auto;enable-background:accumulate;stop-color:#000000;stop-opacity:1"
           d="m 281.57227,338.60156 -1.30469,1.30664 131.34765,131.22852 c 8.77433,8.76608 22.93896,8.75809 31.70508,-0.0156 L 562.33984,351.98828 561.0332,350.68164 442.01367,469.81445 c -8.06532,8.07285 -21.01889,8.08152 -29.09179,0.0156 z"
           transform="scale(0.26458333)" />
        <path
           id="path1535"
           style="color:#000000;font-style:normal;font-variant:normal;font-weight:normal;font-stretch:normal;font-size:medium;line-height:normal;font-family:sans-serif;font-variant-ligatures:normal;font-variant-position:normal;font-variant-caps:normal;font-variant-numeric:normal;font-variant-alternates:normal;font-variant-east-asian:normal;font-feature-settings:normal;font-variation-settings:normal;text-indent:0;text-align:start;text-decoration:none;text-decoration-line:none;text-decoration-style:solid;text-decoration-color:#000000;letter-spacing:normal;word-spacing:normal;text-transform:none;writing-mode:lr-tb;direction:ltr;text-orientation:mixed;dominant-baseline:auto;baseline-shift:baseline;text-anchor:start;white-space:normal;shape-padding:0;shape-margin:0;inline-size:0;clip-rule:nonzero;display:inline;overflow:visible;visibility:visible;opacity:1;isolation:auto;mix-blend-mode:normal;color-interpolation:sRGB;color-interpolation-filters:linearRGB;solid-color:#000000;solid-opacity:1;vector-effect:none;fill:#6dcbc7;fill-opacity:1;fill-rule:nonzero;stroke:#14caff;stroke-width:18.8976;stroke-linecap:round;stroke-linejoin:round;stroke-miterlimit:4;stroke-dasharray:none;stroke-dashoffset:4.45077;stroke-opacity:1;paint-order:fill markers stroke;color-rendering:auto;image-rendering:auto;shape-rendering:auto;text-rendering:auto;enable-background:accumulate;stop-color:#000000;stop-opacity:1"
           d="m 315.57227,304.57031 -1.30665,1.30664 97.34961,97.25977 c 8.77433,8.76608 22.93896,8.75809 31.70508,-0.0156 l 85.01953,-85.10156 -1.30664,-1.30469 -85.01953,85.09961 c -8.06532,8.07285 -21.01889,8.07956 -29.09179,0.0137 z"
           transform="scale(0.26458333)" />
      </g>
      <rect
         style="fill:#363e55;fill-opacity:1;stroke:#000000;stroke-width:3.465;stroke-linecap:round;stroke-linejoin:round;stroke-miterlimit:4;stroke-dasharray:none;stroke-dashoffset:4.45077;stroke-opacity:1;paint-order:fill markers stroke"
         id="rect1514"
         width="54.183338"
         height="54.183338"
         x="147.34363"
         y="-60.248943"
         ry="3.085279"
         transform="rotate(61.29219)" />
      <rect
         style="fill:#299fcb;fill-opacity:1;stroke:none;stroke-width:0.223469;stroke-linecap:round;stroke-linejoin:round;stroke-dashoffset:4.45077;paint-order:fill markers stroke"
         id="rect1587"
         width="45.661228"
         height="45.661228"
         x="151.81499"
         y="-56.053757"
         ry="2.6000175"
         transform="rotate(61.29219)" />
      <circle
         style="fill:#6dcbc7;fill-opacity:1;stroke:#6081b7;stroke-width:3.05089;stroke-linecap:round;stroke-linejoin:round;stroke-miterlimit:4;stroke-dasharray:none;stroke-dashoffset:4.45077;stroke-opacity:1;paint-order:fill markers stroke"
         id="path1589"
         cx="84.090103"
         cy="108.67628"
         r="1.3798882" />
      <circle
         style="fill:#6dcbc7;fill-opacity:1;stroke:#6081b7;stroke-width:3.05089;stroke-linecap:round;stroke-linejoin:round;stroke-miterlimit:4;stroke-dasharray:none;stroke-dashoffset:4.45077;stroke-opacity:1;paint-order:fill markers stroke"
         id="circle1591"
         cx="91.153549"
         cy="104.79009"
         r="1.3798882" />
      <circle
         style="fill:#6dcbc7;fill-opacity:1;stroke:#6081b7;stroke-width:3.05089;stroke-linecap:round;stroke-linejoin:round;stroke-miterlimit:4;stroke-dasharray:none;stroke-dashoffset:4.45077;stroke-opacity:1;paint-order:fill markers stroke"
         id="circle1593"
         cx="98.980141"
         cy="100.4259"
         r="1.3798882" />
      <circle
         style="fill:#6dcbc7;fill-opacity:1;stroke:#6081b7;stroke-width:3.05089;stroke-linecap:round;stroke-linejoin:round;stroke-miterlimit:4;stroke-dasharray:none;stroke-dashoffset:4.45077;stroke-opacity:1;paint-order:fill markers stroke"
         id="circle1595"
         cx="106.56956"
         cy="96.548134"
         r="1.3798882" />
      <circle
         style="fill:#6dcbc7;fill-opacity:1;stroke:#6081b7;stroke-width:3.05089;stroke-linecap:round;stroke-linejoin:round;stroke-miterlimit:4;stroke-dasharray:none;stroke-dashoffset:4.45077;stroke-opacity:1;paint-order:fill markers stroke"
         id="circle1597"
         cx="141.69749"
         cy="107.46918"
         r="1.3798882" />
      <circle
         style="fill:#6dcbc7;fill-opacity:1;stroke:#6081b7;stroke-width:3.05089;stroke-linecap:round;stroke-linejoin:round;stroke-miterlimit:4;stroke-dasharray:none;stroke-dashoffset:4.45077;stroke-opacity:1;paint-order:fill markers stroke"
         id="circle1599"
         cx="146.25836"
         cy="114.5644"
         r="1.3798882" />
      <circle
         style="fill:#6dcbc7;fill-opacity:1;stroke:#6081b7;stroke-width:3.05089;stroke-linecap:round;stroke-linejoin:round;stroke-miterlimit:4;stroke-dasharray:none;stroke-dashoffset:4.45077;stroke-opacity:1;paint-order:fill markers stroke"
         id="circle1601"
         cx="150.10287"
         cy="122.41702"
         r="1.3798882" />
      <circle
         style="fill:#6dcbc7;fill-opacity:1;stroke:#6081b7;stroke-width:3.05089;stroke-linecap:round;stroke-linejoin:round;stroke-miterlimit:4;stroke-dasharray:none;stroke-dashoffset:4.45077;stroke-opacity:1;paint-order:fill markers stroke"
         id="circle1603"
         cx="154.27016"
         cy="130.1646"
         r="1.3798882" />
      <g
         id="g1617">
        <circle
           style="fill:#6dcbc7;fill-opacity:1;stroke:#3aa5b7;stroke-width:3.05089;stroke-linecap:round;stroke-linejoin:round;stroke-miterlimit:4;stroke-dasharray:none;stroke-dashoffset:4.45077;stroke-opacity:1;paint-order:fill markers stroke"
           id="circle1605"
           cx="123.68317"
           cy="178.67729"
           r="1.3798882" />
        <circle
           style="fill:#6dcbc7;fill-opacity:1;stroke:#3aa5b7;stroke-width:3.05089;stroke-linecap:round;stroke-linejoin:round;stroke-miterlimit:4;stroke-dasharray:none;stroke-dashoffset:4.45077;stroke-opacity:1;paint-order:fill markers stroke"
           id="circle1607"
           cx="132.1293"
           cy="174.39319"
           r="1.3798882" />
        <circle
           style="fill:#6dcbc7;fill-opacity:1;stroke:#3aa5b7;stroke-width:3.05089;stroke-linecap:round;stroke-linejoin:round;stroke-miterlimit:4;stroke-dasharray:none;stroke-dashoffset:4.45077;stroke-opacity:1;paint-order:fill markers stroke"
           id="circle1609"
           cx="140.9926"
           cy="169.12726"
           r="1.3798882" />
        <circle
           style="fill:#6dcbc7;fill-opacity:1;stroke:#3aa5b7;stroke-width:3.05089;stroke-linecap:round;stroke-linejoin:round;stroke-miterlimit:4;stroke-dasharray:none;stroke-dashoffset:4.45077;stroke-opacity:1;paint-order:fill markers stroke"
           id="circle1611"
           cx="148.96761"
           cy="164.49922"
           r="1.3798882" />
      </g>
      <g
         id="g1627"
         transform="rotate(90,114.26955,133.3004)">
        <circle
           style="fill:#6dcbc7;fill-opacity:1;stroke:#3aa5b7;stroke-width:3.05089;stroke-linecap:round;stroke-linejoin:round;stroke-miterlimit:4;stroke-dasharray:none;stroke-dashoffset:4.45077;stroke-opacity:1;paint-order:fill markers stroke"
           id="circle1619"
           cx="123.68317"
           cy="178.67729"
           r="1.3798882" />
        <circle
           style="fill:#6dcbc7;fill-opacity:1;stroke:#3aa5b7;stroke-width:3.05089;stroke-linecap:round;stroke-linejoin:round;stroke-miterlimit:4;stroke-dasharray:none;stroke-dashoffset:4.45077;stroke-opacity:1;paint-order:fill markers stroke"
           id="circle1621"
           cx="132.1293"
           cy="174.39319"
           r="1.3798882" />
        <circle
           style="fill:#6dcbc7;fill-opacity:1;stroke:#3aa5b7;stroke-width:3.05089;stroke-linecap:round;stroke-linejoin:round;stroke-miterlimit:4;stroke-dasharray:none;stroke-dashoffset:4.45077;stroke-opacity:1;paint-order:fill markers stroke"
           id="circle1623"
           cx="140.9926"
           cy="169.12726"
           r="1.3798882" />
        <circle
           style="fill:#6dcbc7;fill-opacity:1;stroke:#3aa5b7;stroke-width:3.05089;stroke-linecap:round;stroke-linejoin:round;stroke-miterlimit:4;stroke-dasharray:none;stroke-dashoffset:4.45077;stroke-opacity:1;paint-order:fill markers stroke"
           id="circle1625"
           cx="148.96761"
           cy="164.49922"
           r="1.3798882" />
      </g>
      <path
         style="fill:#ffaaaa;fill-opacity:1;stroke:#000000;stroke-width:2.9239;stroke-linecap:round;stroke-linejoin:round;stroke-miterlimit:4;stroke-dasharray:none;stroke-opacity:1"
         d="m 110.48278,131.32129 c 3.12262,6.24183 6.24453,12.48224 7.67664,16.08509 1.4321,3.60285 1.1752,4.56943 0.64651,5.54382 -0.52869,0.9744 -1.32973,1.95728 -2.45082,2.49752 -1.1211,0.54023 -2.56386,0.63729 -3.86086,0.22513 -1.29701,-0.41215 -2.44787,-1.33511 -3.07742,-2.54739 -0.62955,-1.21228 -0.73616,-2.71314 -0.70249,-2.92217 0.0337,-0.20903 0.20755,0.87374 -0.0216,1.56996 -0.22914,0.69621 -0.86267,1.00771 -1.82424,0.81348 -0.96157,-0.19423 -2.25174,-0.89605 -3.30255,-1.74256 -1.0508,-0.84652 -1.86145,-1.83811 -2.09477,-3.14632 -0.23331,-1.30821 0.11198,-2.93156 0.57857,-4.30166 0.46658,-1.37009 1.05416,-2.48622 1.15445,-2.57004 0.10029,-0.0838 -0.28656,0.86442 -0.97572,1.43073 -0.68916,0.5663 -1.68262,0.75077 -2.998775,0.25301 -1.316155,-0.49775 -2.954774,-1.67932 -3.800686,-3.1264 -0.845912,-1.44708 -0.897296,-3.15907 -0.703299,-4.28862 0.193997,-1.12955 0.632842,-1.67524 1.619674,-2.17041 0.986831,-0.49517 2.520231,-0.93985 3.199952,-1.32198 0.679724,-0.38213 0.506894,-0.70364 -0.03084,-1.41702 -0.53773,-0.71338 -1.4408,-1.81866 -1.791285,-2.97611 -0.350484,-1.15745 -0.147169,-2.36589 0.410957,-3.29095 0.558126,-0.92506 1.469851,-1.56558 2.602311,-1.74794 1.13246,-0.18236 2.48452,0.0921 3.59341,0.54189 1.10889,0.44984 1.97496,1.07416 2.24895,0.86987 0.27399,-0.20429 -0.0427,-1.23714 -0.005,-2.17456 0.0379,-0.93742 0.43053,-1.77782 1.14956,-2.4789 0.71903,-0.70107 1.76309,-1.26233 2.82997,-1.44046 1.06687,-0.17814 2.15562,0.0256 3.07666,0.64759 0.92103,0.62199 1.67539,1.66099 2.05614,2.47927 0.38074,0.81827 0.38887,1.41625 0.21777,2.1567 -0.17111,0.74045 -0.52165,1.62424 -1.11086,2.20934 -0.58921,0.5851 -1.41885,0.87213 -1.06552,0.72194 0.35332,-0.15019 1.88956,-0.73752 3.33721,-1.24428 1.44764,-0.50677 2.80647,-0.93302 4.01865,-0.83384 1.21218,0.0992 2.27758,0.72208 3.07335,1.49046 0.79577,0.76839 1.32307,1.682 1.57209,2.52078 0.24902,0.83879 0.22062,1.60371 0.0771,2.35688 -0.14349,0.75316 -0.40215,1.49535 0.12045,2.1077 0.5226,0.61236 1.82424,1.09406 2.80505,1.67099 0.98081,0.57693 1.64134,1.24819 1.89469,2.07793 0.25335,0.82974 0.1009,1.81864 -0.28977,2.70874 -0.39067,0.89011 -1.02022,1.68233 -1.83999,2.05102 -0.81978,0.36868 -1.8317,0.31304 -2.71976,0.14479 -0.88805,-0.16825 -1.65247,-0.44989 -1.22031,-0.34009 0.43216,0.10979 2.0606,0.61105 3.06693,1.04037 1.00633,0.42931 1.39153,0.78626 1.6704,1.27417 0.27887,0.48791 0.45284,1.10726 0.49631,1.92209 0.0435,0.81484 -0.0432,1.82615 -0.50503,2.80881 -0.46186,0.98266 -1.29964,1.93799 -2.64041,2.56737 -1.34077,0.62939 -3.18594,0.93247 -4.38047,0.90792 -1.19453,-0.0245 -1.73819,-0.37832 -2.58057,-1.58344 -0.84239,-1.20512 -1.98248,-3.26176 -2.72165,-4.60466 -0.73917,-1.3429 -1.07727,-1.97184 -1.72169,-2.3287 -0.64443,-0.35685 -1.59675,-0.44026 -2.30069,-0.39566 -0.70393,0.0446 -1.15887,0.218 -1.12442,0.24904 0.0345,0.031 0.5583,-0.0806 1.35736,0.0672 0.79906,0.14783 1.87329,0.55382 2.08953,0.1341 0.21624,-0.41971 -0.42404,-1.66569 -0.94213,-3.12952 -0.51809,-1.46383 -0.91343,-3.145 -0.70266,-4.46334 0.21077,-1.31833 1.02732,-2.27195 1.62703,-2.92711 0.59971,-0.65515 0.98207,-1.01151 1.36371,-1.3672"
         id="path1643" />
      <path
         style="fill:#ffd5d5;fill-opacity:1;stroke:none;stroke-width:0.264583px;stroke-linecap:butt;stroke-linejoin:miter;stroke-opacity:1"
         d="m 111.94736,131.08577 c 0.028,0.0402 0.0818,0.11738 0.10763,0.17334 0.0259,0.056 0.0259,0.0911 0.0498,0.17 0.0239,0.0789 0.0705,0.20114 0.0932,0.2776 0.0227,0.0765 0.0227,0.10766 0.0358,0.13511 0.0131,0.0274 0.0367,0.051 0.0555,0.0945 0.0187,0.0434 0.0345,0.10627 0.0589,0.15724 0.0244,0.051 0.0559,0.0904 0.0705,0.12177 0.0146,0.0314 0.0146,0.055 0.032,0.0785 0.0174,0.0235 0.0492,0.0473 0.0678,0.0794 0.0187,0.032 0.0266,0.0714 0.0615,0.14526 0.035,0.0738 0.096,0.18207 0.16594,0.19072 0.0699,0.009 0.15071,-0.0793 0.19481,-0.1343 0.0441,-0.055 0.052,-0.0787 0.0746,-0.11336 0.0226,-0.0347 0.0596,-0.0792 0.082,-0.11993 0.0223,-0.0407 0.0302,-0.0795 0.0501,-0.11576 0.0199,-0.0362 0.0513,-0.0677 0.0945,-0.12642 0.0431,-0.0588 0.0982,-0.14534 0.14176,-0.20474 0.0435,-0.0594 0.075,-0.0909 0.12998,-0.16152 0.0549,-0.0706 0.13369,-0.18087 0.20789,-0.27108 0.0742,-0.0902 0.14353,-0.15991 0.20978,-0.2146 0.0663,-0.0547 0.12869,-0.0939 0.20552,-0.16362 0.0768,-0.0697 0.16888,-0.17049 0.21496,-0.22689 0.0461,-0.0564 0.0461,-0.071 -0.0158,-0.0857 -0.0619,-0.0147 -0.18853,-0.0271 -0.31109,-0.0257 -0.12256,0.001 -0.24038,0.0171 -0.34255,0.029 -0.10216,0.0118 -0.18876,0.0197 -0.24846,0.0314 -0.0597,0.0116 -0.0912,0.0274 -0.14948,0.0356 -0.0583,0.008 -0.14491,0.008 -0.21992,0.012 -0.075,0.004 -0.13797,0.0117 -0.27459,0.0196 -0.13662,0.008 -0.34713,0.0158 -0.5048,0.0443 -0.15767,0.0285 -0.2611,0.0781 -0.31337,0.10318 -0.0523,0.0251 -0.0522,0.0252 -0.0242,0.0653 z"
         id="path1647" />
    </g>
  </g>
</svg>
