<?xml version="1.0" encoding="UTF-8" standalone="no"?>
<svg
   xmlns:dc="http://purl.org/dc/elements/1.1/"
   xmlns:cc="http://creativecommons.org/ns#"
   xmlns:rdf="http://www.w3.org/1999/02/22-rdf-syntax-ns#"
   xmlns:svg="http://www.w3.org/2000/svg"
   xmlns="http://www.w3.org/2000/svg"
   width="24.288979mm"
   height="24.288979mm"
   viewBox="0 0 24.288979 24.288978"
   version="1.1"
   id="svg1529">
  <defs
     id="defs1523" />
  <metadata
     id="metadata1526">
    <rdf:RDF>
      <cc:Work
         rdf:about="">
        <dc:format>image/svg+xml</dc:format>
        <dc:type
           rdf:resource="http://purl.org/dc/dcmitype/StillImage" />
        <dc:title></dc:title>
      </cc:Work>
    </rdf:RDF>
  </metadata>
  <g
     id="layer1"
     transform="translate(-120.87412,-142.9417)">
    <g
       id="g1420"
       transform="matrix(0.67710674,0,0,0.67710674,33.792926,69.12676)">
      <rect
         style="opacity:1;fill:#ed4d31;fill-opacity:1;stroke:#ed4d31;stroke-width:1.265;stroke-linecap:round;stroke-linejoin:round;stroke-miterlimit:4;stroke-dasharray:none;stroke-dashoffset:4.45077;stroke-opacity:1;paint-order:fill markers stroke"
         id="rect1391"
         width="34.606712"
         height="34.606712"
         x="129.24028"
         y="109.64772"
         ry="0" />
      <g
         id="g1413"
         transform="matrix(1.1519386,0,0,1.1519386,19.310886,-16.182525)">
        <path
           style="fill:#f1f1f1;fill-opacity:1;stroke:#f1f1f1;stroke-width:0.539;stroke-linecap:butt;stroke-linejoin:miter;stroke-miterlimit:4;stroke-dasharray:none;stroke-opacity:1"
           d="m 102.93048,116.16327 1.29142,15.82054 6.37366,1.9937 6.54865,-1.73323 1.31469,-16.1275 z"
           id="path1311" />
        <path
           style="fill:#ed4d31;fill-opacity:1;stroke:#ed4d31;stroke-width:0.540193;stroke-linecap:butt;stroke-linejoin:miter;stroke-miterlimit:4;stroke-dasharray:none;stroke-opacity:1"
           d="m 106.43621,126.43439 0.16369,2.99418 4.00232,1.32089 4.25573,-1.12032 0.1961,-6.01505 -6.98811,-0.13168 -0.0387,-2.05056 7.31942,0.0938 0.12088,-2.03863 -9.61025,-0.052 0.37194,5.73419 6.82232,0.10294 -0.0874,2.56561 -2.10086,0.82118 -2.50459,-0.71318 -0.073,-1.39953 v -0.16247 z"
           id="path1313" />
      </g>
      <path
         id="path1407"
         style="opacity:0.0587824;fill:#000000;fill-opacity:1;stroke:#000000;stroke-width:1.265;stroke-linecap:round;stroke-linejoin:round;stroke-miterlimit:4;stroke-dasharray:none;stroke-dashoffset:4.45077;stroke-opacity:1;paint-order:fill markers stroke"
         d="m 157.6148,109.64776 a 29.192527,29.192527 0 0 1 -28.3745,28.20499 v 6.40168 h 34.60668 v -34.60667 z" />
    </g>
  </g>
</svg>
