<?xml version="1.0" encoding="UTF-8" standalone="no"?>
<svg
   xmlns:dc="http://purl.org/dc/elements/1.1/"
   xmlns:cc="http://creativecommons.org/ns#"
   xmlns:rdf="http://www.w3.org/1999/02/22-rdf-syntax-ns#"
   xmlns:svg="http://www.w3.org/2000/svg"
   xmlns="http://www.w3.org/2000/svg"
   width="24.288984mm"
   height="24.288984mm"
   viewBox="0 0 24.288985 24.288984"
   version="1.1"
   id="svg1529">
  <defs
     id="defs1523" />
  <metadata
     id="metadata1526">
    <rdf:RDF>
      <cc:Work
         rdf:about="">
        <dc:format>image/svg+xml</dc:format>
        <dc:type
           rdf:resource="http://purl.org/dc/dcmitype/StillImage" />
        <dc:title></dc:title>
      </cc:Work>
    </rdf:RDF>
  </metadata>
  <g
     id="layer1"
     transform="translate(-103.31569,-127.12053)">
    <g
       id="g1305"
       transform="matrix(0.67710674,0,0,0.67710674,23.003855,53.681095)">
      <rect
         style="opacity:1;fill:#86c855;fill-opacity:1;stroke:#86c855;stroke-width:1.265;stroke-linecap:round;stroke-linejoin:round;stroke-miterlimit:4;stroke-dasharray:none;stroke-dashoffset:4.45077;stroke-opacity:1;paint-order:fill markers stroke"
         id="rect1275"
         width="34.606712"
         height="34.606712"
         x="119.2428"
         y="109.09314"
         ry="0" />
      <path
         id="path1291"
         style="opacity:0.0587824;fill:#000000;fill-opacity:1;stroke:#000000;stroke-width:1.265;stroke-linecap:round;stroke-linejoin:round;stroke-miterlimit:4;stroke-dasharray:none;stroke-dashoffset:4.45077;stroke-opacity:1;paint-order:fill markers stroke"
         d="m 147.61734,109.09319 a 29.192527,29.192527 0 0 1 -28.3745,28.20499 v 6.40168 h 34.60668 v -34.60667 z" />
      <g
         id="g1273"
         transform="matrix(0.68374277,0,0,0.68374277,58.959344,30.694105)">
        <path
           id="path1261"
           style="color:#000000;font-style:normal;font-variant:normal;font-weight:normal;font-stretch:normal;font-size:medium;line-height:normal;font-family:sans-serif;font-variant-ligatures:normal;font-variant-position:normal;font-variant-caps:normal;font-variant-numeric:normal;font-variant-alternates:normal;font-variant-east-asian:normal;font-feature-settings:normal;font-variation-settings:normal;text-indent:0;text-align:start;text-decoration:none;text-decoration-line:none;text-decoration-style:solid;text-decoration-color:#000000;letter-spacing:normal;word-spacing:normal;text-transform:none;writing-mode:lr-tb;direction:ltr;text-orientation:mixed;dominant-baseline:auto;baseline-shift:baseline;text-anchor:start;white-space:normal;shape-padding:0;shape-margin:0;inline-size:0;clip-rule:nonzero;display:inline;overflow:visible;visibility:visible;opacity:1;isolation:auto;mix-blend-mode:normal;color-interpolation:sRGB;color-interpolation-filters:linearRGB;solid-color:#000000;solid-opacity:1;vector-effect:none;fill:#f1f1f1;fill-opacity:1;fill-rule:nonzero;stroke:none;stroke-width:2.77944;stroke-linecap:round;stroke-linejoin:round;stroke-miterlimit:4;stroke-dasharray:none;stroke-dashoffset:4.45077;stroke-opacity:1;paint-order:fill markers stroke;color-rendering:auto;image-rendering:auto;shape-rendering:auto;text-rendering:auto;enable-background:accumulate;stop-color:#000000;stop-opacity:1"
           d="m 113.10841,119.99957 a 1.3898586,1.3898586 0 0 0 -0.65926,0.17953 l -7.95719,4.51147 a 1.3898586,1.3898586 0 0 0 -0.0172,0.0115 l -7.886807,4.63499 a 1.3898586,1.3898586 0 0 0 -0.685121,1.18927 l -0.07469,9.14789 a 1.3898586,1.3898586 0 0 0 0,0.0215 l 0.07469,9.14645 a 1.3898586,1.3898586 0 0 0 0.685121,1.18928 l 4.844687,2.84821 c 0.41432,-0.83058 0.82833,-1.66119 1.24242,-2.492 l -4.003013,-2.35413 -0.06463,-8.3493 0.06463,-8.3493 7.198813,-4.23425 7.26344,-4.11504 7.2735,4.12078 7.19307,4.22851 0.0646,8.3493 -0.0646,8.3493 -7.19881,4.23426 -7.26776,4.11504 -2.67011,-1.51244 c -0.52145,0.76855 -1.0438,1.53708 -1.56558,2.30528 l 3.55057,2.01372 a 1.3898586,1.3898586 0 0 0 1.37455,0 l 7.95719,-4.51147 a 1.3898586,1.3898586 0 0 0 0.0172,-0.0101 l 7.8868,-4.63642 a 1.3898586,1.3898586 0 0 0 0.68513,-1.1892 l 0.0761,-9.14645 a 1.3898586,1.3898586 0 0 0 0,-0.0215 l -0.0761,-9.14789 a 1.3898586,1.3898586 0 0 0 -0.68513,-1.18927 l -7.8868,-4.63499 a 1.3898586,1.3898586 0 0 0 -0.0172,-0.0115 l -7.95719,-4.51147 a 1.3898586,1.3898586 0 0 0 -0.63054,-0.1781 1.3898586,1.3898586 0 0 0 -0.0847,-0.001 z" />
        <text
           xml:space="preserve"
           style="font-style:normal;font-variant:normal;font-weight:bold;font-stretch:normal;font-size:20.9348px;line-height:1.25;font-family:Ubuntu;-inkscape-font-specification:'Ubuntu Bold';fill:#f1f1f1;fill-opacity:1;stroke-width:0.523374"
           x="101.28506"
           y="153.7451"
           id="text1238"><tspan
             id="tspan1236"
             x="101.28506"
             y="153.7451"
             style="font-style:normal;font-variant:normal;font-weight:bold;font-stretch:normal;font-family:Ubuntu;-inkscape-font-specification:'Ubuntu Bold';fill:#f1f1f1;fill-opacity:1;stroke-width:0.523374">J</tspan></text>
        <rect
           style="opacity:1;fill:#f1f1f1;fill-opacity:1;stroke:none;stroke-width:3.02228;stroke-linecap:round;stroke-linejoin:round;stroke-miterlimit:4;stroke-dasharray:none;stroke-dashoffset:4.45077;stroke-opacity:1;paint-order:fill markers stroke"
           id="rect1246"
           width="3.2569549"
           height="14.354369"
           x="107.63279"
           y="132.90588" />
        <text
           xml:space="preserve"
           style="font-style:normal;font-variant:normal;font-weight:bold;font-stretch:normal;font-size:26.8585px;line-height:1.25;font-family:Ubuntu;-inkscape-font-specification:'Ubuntu Bold';fill:#f1f1f1;fill-opacity:1;stroke-width:0.671465"
           x="109.07071"
           y="149.26608"
           id="text1250"
           transform="scale(1.0260433,0.97461774)"><tspan
             id="tspan1248"
             x="109.07071"
             y="149.26608"
             style="font-style:normal;font-variant:normal;font-weight:bold;font-stretch:normal;font-family:Ubuntu;-inkscape-font-specification:'Ubuntu Bold';fill:#f1f1f1;fill-opacity:1;stroke-width:0.671465">s</tspan></text>
        <path
           id="path1264"
           style="color:#000000;font-style:normal;font-variant:normal;font-weight:normal;font-stretch:normal;font-size:medium;line-height:normal;font-family:sans-serif;font-variant-ligatures:normal;font-variant-position:normal;font-variant-caps:normal;font-variant-numeric:normal;font-variant-alternates:normal;font-variant-east-asian:normal;font-feature-settings:normal;font-variation-settings:normal;text-indent:0;text-align:start;text-decoration:none;text-decoration-line:none;text-decoration-style:solid;text-decoration-color:#000000;letter-spacing:normal;word-spacing:normal;text-transform:none;writing-mode:lr-tb;direction:ltr;text-orientation:mixed;dominant-baseline:auto;baseline-shift:baseline;text-anchor:start;white-space:normal;shape-padding:0;shape-margin:0;inline-size:0;clip-rule:nonzero;display:inline;overflow:visible;visibility:visible;opacity:1;isolation:auto;mix-blend-mode:normal;color-interpolation:sRGB;color-interpolation-filters:linearRGB;solid-color:#000000;solid-opacity:1;vector-effect:none;fill:#f1f1f1;fill-opacity:1;fill-rule:nonzero;stroke:none;stroke-width:2.77944;stroke-linecap:round;stroke-linejoin:round;stroke-miterlimit:4;stroke-dasharray:none;stroke-dashoffset:4.45077;stroke-opacity:1;paint-order:fill markers stroke;color-rendering:auto;image-rendering:auto;shape-rendering:auto;text-rendering:auto;enable-background:accumulate;stop-color:#000000;stop-opacity:1"
           d="m 113.63758,119.99957 a 1.3898586,1.3898586 0 0 0 -0.65926,0.17953 l -7.95719,4.51147 a 1.3898586,1.3898586 0 0 0 -0.0172,0.0115 l -7.88681,4.63499 a 1.3898586,1.3898586 0 0 0 -0.685121,1.18927 l -0.07469,9.14789 a 1.3898586,1.3898586 0 0 0 0,0.0215 l 0.07469,9.14645 a 1.3898586,1.3898586 0 0 0 0.685121,1.18928 l 4.84469,2.84821 c 0.41432,-0.83058 0.82833,-1.66119 1.24242,-2.492 l -4.003016,-2.35413 -0.06463,-8.3493 0.06463,-8.3493 7.198816,-4.23425 7.26344,-4.11504 7.2735,4.12078 7.19307,4.22851 0.0646,8.3493 -0.0646,8.3493 -7.19881,4.23426 -7.26776,4.11504 -2.67011,-1.51244 c -0.52145,0.76855 -1.0438,1.53708 -1.56558,2.30528 l 3.55057,2.01372 a 1.3898586,1.3898586 0 0 0 1.37455,0 l 7.95719,-4.51147 a 1.3898586,1.3898586 0 0 0 0.0172,-0.0101 l 7.8868,-4.63642 a 1.3898586,1.3898586 0 0 0 0.68513,-1.1892 l 0.0761,-9.14645 a 1.3898586,1.3898586 0 0 0 0,-0.0215 l -0.0761,-9.14789 a 1.3898586,1.3898586 0 0 0 -0.68513,-1.18927 l -7.8868,-4.63499 a 1.3898586,1.3898586 0 0 0 -0.0172,-0.0115 l -7.95719,-4.51147 a 1.3898586,1.3898586 0 0 0 -0.63054,-0.1781 1.3898586,1.3898586 0 0 0 -0.0847,-0.001 z" />
      </g>
    </g>
  </g>
</svg>
